<svg width="18" height="18" viewBox="0 0 18 18" fill="none" xmlns="http://www.w3.org/2000/svg">
<g id="facebook (1) 1" clip-path="url(#clip0_106_232)">
<path id="Vector" d="M17.0064 3.181e-08H0.992752C0.444397 0.00027469 -0.000137297 0.445084 3.181e-08 0.993576V17.0072C0.00027469 17.5556 0.445084 18.0001 0.993576 18H17.0064C17.5551 18.0001 17.9999 17.5555 18 17.0068C18 17.0067 18 17.0066 18 17.0064V0.992752C17.9997 0.444397 17.5549 -0.000137297 17.0064 3.181e-08Z" fill="#4267B2"/>
<path id="Vector_2" d="M12.4277 18V11.0391H14.7744L15.126 8.31445H12.4277V6.57916C12.4277 5.79213 12.6462 5.25586 13.7748 5.25586H15.2051V2.82555C14.9562 2.79245 14.1025 2.71843 13.109 2.71843C11.0348 2.71843 9.61523 3.98405 9.61523 6.30931V8.31445H7.27734V11.0391H9.61523V18H12.4277Z" fill="white"/>
</g>
<defs>
<clipPath id="clip0_106_232">
<rect width="18" height="18" fill="white"/>
</clipPath>
</defs>
</svg>
