<svg width="18" height="18" viewBox="0 0 18 18" fill="none" xmlns="http://www.w3.org/2000/svg">
<g id="frame 1">
<g id="Group">
<path id="Vector" d="M17.4727 1.08984C17.1812 1.08984 16.9453 1.32571 16.9453 1.61719V2.14453H14.8008V1.61719C14.8008 1.32571 14.5649 1.08984 14.2734 1.08984C13.982 1.08984 13.7461 1.32571 13.7461 1.61719V2.67188C13.7461 2.96283 13.5097 3.19922 13.2188 3.19922H4.78125C4.4903 3.19922 4.25391 2.96283 4.25391 2.67188V1.61719C4.25391 1.32571 4.01804 1.08984 3.72656 1.08984C3.43508 1.08984 3.19922 1.32571 3.19922 1.61719V2.14453H1.05469V1.61719C1.05469 1.32571 0.818824 1.08984 0.527344 1.08984C0.235863 1.08984 0 1.32571 0 1.61719V16.3828C0 16.6743 0.235863 16.9102 0.527344 16.9102C0.818824 16.9102 1.05469 16.6743 1.05469 16.3828V15.8555H3.19922V16.3828C3.19922 16.6743 3.43508 16.9102 3.72656 16.9102C4.01804 16.9102 4.25391 16.6743 4.25391 16.3828V15.3281C4.25391 15.0372 4.4903 14.8008 4.78125 14.8008H13.2188C13.5097 14.8008 13.7461 15.0372 13.7461 15.3281V16.3828C13.7461 16.6743 13.982 16.9102 14.2734 16.9102C14.5649 16.9102 14.8008 16.6743 14.8008 16.3828V15.8555H16.9453V16.3828C16.9453 16.6743 17.1812 16.9102 17.4727 16.9102C17.7641 16.9102 18 16.6743 18 16.3828V1.61719C18 1.32571 17.7641 1.08984 17.4727 1.08984ZM3.19922 14.8008H1.05469V12.6914H3.19922V14.8008ZM3.19922 11.6367H1.05469V9.52734H3.19922V11.6367ZM3.19922 8.47266H1.05469V6.36328H3.19922V8.47266ZM3.19922 5.30859H1.05469V3.19922H3.19922V5.30859ZM11.4019 9.43875L8.23781 11.5481C8.0743 11.6571 7.86568 11.6651 7.69655 11.5744C7.52509 11.4827 7.41797 11.304 7.41797 11.1094V6.89062C7.41797 6.69596 7.52509 6.51727 7.69658 6.42558C7.86807 6.3334 8.07715 6.34472 8.23785 6.45184L11.4019 8.56121C11.5487 8.65905 11.6368 8.82387 11.6368 8.99996C11.6368 9.17606 11.5487 9.34091 11.4019 9.43875ZM16.9453 14.8008H14.8008V12.6914H16.9453V14.8008ZM16.9453 11.6367H14.8008V9.52734H16.9453V11.6367ZM16.9453 8.47266H14.8008V6.36328H16.9453V8.47266ZM16.9453 5.30859H14.8008V3.19922H16.9453V5.30859Z" fill="#848484"/>
<path id="Vector_2" d="M8.47266 10.1242L10.1587 8.99999L8.47266 7.87576V10.1242Z" fill="#848484"/>
</g>
</g>
</svg>
